<?xml version="1.0" encoding="utf-8"?>
<!-- Generator: Adobe Illustrator 16.0.0, SVG Export Plug-In . SVG Version: 6.00 Build 0)  -->
<!DOCTYPE svg PUBLIC "-//W3C//DTD SVG 1.1//EN" "http://www.w3.org/Graphics/SVG/1.1/DTD/svg11.dtd">
<svg version="1.1" id="Layer_1" xmlns="http://www.w3.org/2000/svg" xmlns:xlink="http://www.w3.org/1999/xlink" x="0px" y="0px"
	 width="300px" height="209.125px" viewBox="0 0 300 209.125" enable-background="new 0 0 300 209.125" xml:space="preserve">
<path fill="#FFFFFF" d="M266.328,110.553c-0.734,35.938-4.981,52.219-13.468,66.282c-13.084,21.683-19.436,29.347-54.395,30.241
	l-0.014-195.737c35.316-0.209,50.206,12.751,62.676,51.016C264.686,73.789,266.328,87.951,266.328,110.553 M101.309,136.339H44.802
	c3.832-16.062,10.751-41.308,14.856-54.924l2.737-9.255l2.735-8.989l3.012-8.986c0-0.544,3.77-10.325,4.591-13.319L101.309,136.339z
	 M300,109.189c0-26.413-6.571-50.917-18.34-68.074c-10.404-15.249-21.354-23.145-38.325-27.501
	c-10.678-2.724-25.731-4.355-38.874-4.355h-55.294v2.049c14.781,4.085,18.889,9.659,18.889,27.355V158.75
	c0,25.1-2.094,42.313-9.057,48.486c-3.116-3.625-5.827-12.418-9.82-21.973c-2.829-6.773-7.444-19.435-8.745-23.244L84.863,0
	l-55.5,157.654c-1.641,4.357-4.883,13.914-5.156,14.73c-3.012,8.441-5.863,13.863-8.874,19.039
	c-4.93,8.168-9.035,12.109-15.332,15.65v2.05h58.856l-0.039-1.987c-8.13-0.652-15.627-6.275-17.08-15.152
	c-0.483-2.951-1.083-12.371-1.043-15.656c0.094-7.75,0.183-22.051,3.783-38.124h57.376l8.464,28.713
	c0.279,1.089,0.824,2.722,1.372,4.356c3.013,10.348,4.106,15.521,4.106,20.693c0,8.982-4.653,13.473-15.057,15.107v2.05h47.059
	h18.37h57.186c19.435,0,33.123-4.632,45.165-15.25C288.228,176.719,300,144.859,300,109.189"/>
</svg>
